<?xml version="1.0" encoding="utf-8"?>
<!-- Generator: Adobe Illustrator 18.0.0, SVG Export Plug-In . SVG Version: 6.00 Build 0)  -->
<!DOCTYPE svg PUBLIC "-//W3C//DTD SVG 1.1//EN" "http://www.w3.org/Graphics/SVG/1.1/DTD/svg11.dtd">
<svg version="1.1" id="Vrstva_1" xmlns="http://www.w3.org/2000/svg" xmlns:xlink="http://www.w3.org/1999/xlink" x="0px" y="0px"
	 viewBox="0 0 2545 600" enable-background="new 0 0 2545 600" xml:space="preserve">
<g>
	<g>
		<path fill="#010100" d="M1273,601c-422.5,0-845,0-1267.5,0.1c-3.7,0-4.6-0.8-4.6-4.6c0.1-197,0.1-394,0-591c0-3.7,0.8-4.6,4.6-4.6
			c845.3,0.1,1690.7,0.1,2536,0c3.7,0,4.6,0.8,4.6,4.6c-0.1,197-0.1,394,0,591c0,3.7-0.8,4.6-4.6,4.6
			C2118.7,601,1695.8,601,1273,601z"/>
		<path fill="#FFFFFF" d="M1394.9,371c0.3,1.3,0.7,2.7,1,4c1.3,4.3,2.4,8.6,3,13c1.8,10.7,3.1,21.5,6.1,31.9c0.7,4.9-4.1,7-5.6,10.7
			c-3.2,4.5-7,8.4-11.2,12c-10.9,9.3-19.5,9.9-32.3,2.4c-4.3-3-8.3-6.3-12.5-9.4c-4.1-3.3-6.9-7.6-9.6-12.1
			c-4.7-8.4-5.9-17.6-5.3-27c0.7-10.4-1.1-20.1-5.6-29.5c-1.4-2.9-0.6-7.3-5.5-7.6c-2.6-0.9-4.3-3.2-6.6-4.6c-0.6-0.4-1-1-1.4-1.6
			c-3.8-2.2-6-5.7-8.3-9.2c-0.5-1.1-0.9-2.3-1.2-3.5c-0.5-2.9,1-4.6,3.6-5.5c2.4-0.9,4.9-1.7,7.3-2.5c-9.2-1.8-18.3-3.6-26.9-7.4
			c-2.7-1.5-5.4-2.8-8.1-4.1c-5.3-2.7-9.9-6.5-14.2-10.5c-2.1-0.5-5.4,0.3-4.4-3.8c1.1-2.5,2.9-4.6,4.7-6.6c3.9-2.8,7.9-3,12.2-1
			c5.9,2.8,12.4,3.6,18.6,5.6c9.3,3,18.5,6.1,27.5,9.9c0.7,0.2,1.4,0.5,2.1,0.7c2,1.1,4.3,1.6,6.9,2.7c-1.8-0.9-3.1-1.2-4.4-1.8
			c-1.1-0.2-2.1-0.9-3.2-1.3c-2.4-0.9-4.9-1.5-7.1-2.8c-1.4-1.4-3.3-1.7-5.2-2c-5-0.6-9.1-3.7-13.9-4.9c-7.6-2-15.2-4.5-22.7-7.1
			c-1.5-0.7-3.2-0.6-4.8-0.6c-5.9,0.1-5.9,0.1-3.6-5.4c4.8-5.5,11.2-6.6,18-6.1c11.6,0.8,22.8,3.5,34.3,5c3.3,0.9,6.7,1.6,10.2,2
			c4.6,0.3,9.2-0.5,12.8-0.7c-7,1.3-13.9-2.6-21.2-4.2c-1.9-0.7-3.7-1.6-5.7-2.1c-8-2.5-15.8-5.6-24.2-6.9
			c-6.9-1.1-13.1,0.1-18.6,4.5c-2,1.1-3.7,2.7-6,3.2c-1.5,0-2.4-0.6-2.5-2.2c0.2-2.2,2.2-3.1,3.1-4.8c1.9-2.3,4.7-3.5,6.5-5.9
			c3.3-3.5,7.4-6.1,11.4-8.7c5.6-3.6,11.8-2.9,17.8-1.4c7.9,2,15.4,5,23.2,7.4c10,3.7,20.4,5.6,30.8,7.6c4.5,1,9,2.2,13.5,3.3
			c4.6,1.2,8.9,3,11.5,7.3c0.4,0.7,0.8,1.5,1,2.3c4.7,13.6,4.6,28.1,7.5,42.1c1.5,7.3,4.6,14.3,4.3,21.9
			C1392.6,360.7,1393.4,365.9,1394.9,371z"/>
		<path fill="#FFFFFF" d="M1172.3,159.1c6.6-6.9,12.7-14.3,16.8-23.1c5.1-7.3,4.4-7.8,11.1,0.3c1.1,1.7,2.9,2.9,3.8,4.8
			c4.9,7.3,10.9,13.7,17.1,19.8c3.5,3.9,8.1,6.6,12.1,10c2.6,1.7,5.2,3.4,7.8,5.1c3.1,1.6,5.8,3.8,8.6,5.8
			c4.7,4.5,10.7,7.2,15.7,11.4c2.6,2.2,5,4.3,7.2,6.9c3.3,3.9,3.3,5.3-0.6,8.6c-1,0.9-2,1.8-3,2.6c-2,1.3-4.2,2.5-6,4.1
			c-0.5,0.4-1,0.8-1.6,1.2c-1.5,0.9-2.8,2.1-4.2,3.1c-3.2,2.2-5.9,4.9-8.6,7.7c-2.5,2.3-4.8,4.8-6.8,7.6c-1.4,1.7-2.7,3.5-4.1,5.2
			c-1.1,1.1-2.6,1.8-3.5,3.2c-0.8,1.2-1,2.7-1.3,4c-0.1,0.4-0.2,0.8-0.4,1.2c-0.8,2.3-1.7,4.6-3,6.6c-3.3,3.4-3.9,8.2-6.8,11.8
			c-0.4,0.6-0.8,1.2-1.3,1.7c-4.3,6.1-4.6,13.7-7.7,20.3c-0.4,0.7-1,1.1-1.8,1.2c-4.7-3.8-6.2-9.6-8.8-14.7
			c-7-13.8-14.1-27.5-19.7-42c-1.8-4.5-4.4-8.9-6.8-13.2c-3.3-5.8-5.2-12.2-6.5-18.7c-0.3-1.8-0.2-3.7-1.4-5.3
			c-0.3-0.4-0.4-0.8-0.5-1.3c-0.3-1.8,0.3-3.8-1-5.4c-1.6-4.8-3.5-9.5-5.4-14.2c-0.9-2.2-1.3-4,0.7-5.7
			C1166.2,166.9,1168.6,162.4,1172.3,159.1z"/>
		<path fill="#FFFFFF" d="M1411.9,133.1c7.1,13.4,16.8,24.8,26.9,36c2.1,2,3.3,4.2,1.5,7.1c-0.8,3.8-3.4,7.1-3.3,11.2
			c-0.7,4.9-2.8,9.3-4,14.1c-2.2,4.9-3.1,10.2-4.1,15.4c-7.5,15-13.5,30.7-21.3,45.5c-4.1,7.8-7.3,16-11.4,23.8
			c-0.6,1.2-1,2.5-1.8,3.5c-1,1.3-1.8,3.1-3.8,2.6c-1.8-0.4-1.7-2.2-1.9-3.7c0.1-2-0.7-3.7-1.4-5.5c-0.2-0.5-0.3-0.9-0.4-1.4
			c-0.4-8-4.7-14.5-8.4-21.2c-1.2-3.3-3.6-5.9-5.4-8.9c-4.8-6.8-8.9-14-14.6-20.1c-1.9-3.4-5.2-5.6-8-8.1c-2.2-3-5.5-4.7-8.3-6.9
			c-3.5-3.1-7.7-5.3-11-8.6c-2.8-2.7-3-5.2,0-7.6c6-5,11.4-10.7,18.2-14.6c2.2-0.7,3.8-2.4,5.7-3.6l0,0c4.1-2.5,8.1-5.2,11.9-8.1
			c5.6-4.8,11.7-8.8,16.9-14.1c2-0.6,3.1-2.2,4.2-3.8c4.6-5.1,9.6-9.8,13-15.9c1-0.9,2.2-1.7,3-2.9c1.3-1,2.3-2.2,3.4-3.4
			C1408.7,132.5,1410.1,131.5,1411.9,133.1z"/>
		<path fill="#FFFFFF" d="M1262,351c1.2,1,2.5,2.1,3.7,3.1c3.2,3.6-1,5.9-1.5,8.9c-0.1,0.3-0.2,0.6-0.2,0.9
			c-1.8,2.4-2.1,5.3-2.9,8.1c-0.3,1.3-0.7,2.6-1,4c-1.2,1.4-0.5,3.7-2.3,4.8c-5.6,17.1-11.2,34.1-16.7,51.2
			c-2.9,3.2-3.8,0.5-4.8-1.6c-4.3-9.3-8.4-18.8-12.3-28.3c-1.1-2.6-2.2-5.2-3.7-7.6c-1.1-2.3-1.7-4.7-3-7
			c-7.9-25.3-15.1-50.9-22.1-76.5c0-2.5-0.6-4.9-1.3-7.2c-1.7-9.4-3-19-5.5-28.3c-1.3-5-1.7-10.1-2.4-15.2c-0.2-1.6,0-3.5,2.4-3.5
			c2.7,0.7,3.7,3.1,5,5.2c7.6,11.6,13.2,24.4,20.3,36.6c1.5-1.3,1.5-3.2,2.4-4.7c1-1.9,2-3.8,3.1-5.6c4.4-7.6,9-15.1,13.6-22.6
			c2.3-3.6,4.5-7.4,8.5-9.5c2.2-0.6,4.2,0.4,6.2,0.6c2.9,1.1,5.9,0.7,8.9,0.7c6.1,0.1,8,1.4,9.7,7.2c0.7,2.6,1.6,5,2.7,7.5
			c0.9,2.8-0.9,4.4-2.9,5.8c-3.6,4.1-7.8,7.8-10.7,12.6c-0.2,0.4-0.3,0.9-0.5,1.3c-1,4.2-2.1,8.4-0.8,12.7c0.2,0.5,0.2,1,0.3,1.5
			c0.2,1.5,0.1,3.1-0.2,4.6c-0.4,1.5-0.7,2.9-1.1,4.3c-2.1,4.8-2.1,9.7-0.4,14.7c0.2,0.4,0.3,0.9,0.5,1.3c0.4,1.5,0.4,3.2,0.9,4.7
			c0.3,1,0.6,2.1,1,3.1c0.4,1.4,1.1,2.7,1.9,4C1258,345.9,1260.6,348.1,1262,351z"/>
		<path fill="#1A1A1A" d="M1283,334c11.9,16,12.8,34.5,11.9,53.2c-0.5,9.2-3.7,18-6.6,26.8c-1.7,5.1-4.1,10.1-5.8,15.2
			c-1.8,5.2-4.7,9.8-6.7,14.8c-3.8,9.4-6.8,19.1-11.2,28.2c-3.2,6.6-3.4,14-7,20.4c-1.7,3.1-1.2,7.4-1.6,11.2
			c-0.1,1-0.1,2.3-1.3,2.4c-1.6,0.2-1.5-1.4-1.7-2.5c-2.2-10.8-6.6-21-9.7-31.5c-1.6-5.5-0.6-12-4.9-16.7c-0.3-0.4-0.3-1.4-0.1-1.9
			c4.8-8,5.8-17.3,9.2-25.8c2.3-5.8,3.9-12.2,5.9-18.2c1.8-5.4,3-11,5.5-16.3c2.7-5.8,3.3-12.5,6.3-18c2.8-5.2,2.6-11,4.8-16.2
			c2.8-6.7,5.1-13.6,6.8-20.7C1277.8,334.4,1279.3,333.2,1283,334L1283,334z"/>
		<path fill="#121313" d="M1389.9,288.1c0.2,1.1,0.4,2.2,0.7,4.3c4.4-5,6-10.6,8.5-15.7c7.9-15.6,15.4-31.4,23.1-47.2
			c2-4.2,3.9-8.4,5.8-12.6c1.2-5.4,2.7-10.6,4.1-15.9c1.3-4.7,3.4-9.1,3.9-14c0.7-3.5,2.4-6.7,3.7-10c0.4-0.4,0.8-0.4,1.3-0.1
			c-0.3,5.7-3.1,10.7-4.5,16.1c-3.8,14.7-7.4,29.5-15.8,42.6c-0.4,0.7-0.9,1.4-0.4,2.4c1.6-0.2,1.8-3.3,3.7-2.1
			c1.7,1.2,1.1,3.4,0.7,5.1c-3.9,18-8.1,36-11.9,54.1c-2.3,11-6.2,21.5-8.4,32.5c-1.1,5.6-3.6,10.9-5.4,16.3c-0.7-0.5-1-1.3-1.2-2.1
			c-0.2-1.1-0.2-2.2-0.1-3.3c3.1-11.2,6.5-22.3,9.2-33.6c1.9-6.4,3.9-12.8,3.9-19.6c0.1-0.5,0.3-1,0.5-1.4c0.2-0.4,0.5-0.8,0.8-1.2
			c1.9-3.7,2.6-7.6,2.5-11.7c0-1.2,0.1-2.4,0.5-3.5c0.2-0.4,0.4-0.8,0.6-1.2c1.5-2,1.7-4.5,2.2-6.9c0.1-0.4,0.2-0.9,0.3-1.3
			c1.4-4.6,1.6-9.5,3.1-14c-0.9,1.2-1,2.7-1.6,4c-1.7,4.2-4.1,8-6,12.1c-2.2,5.9-5.7,11.1-8.8,16.6c-3.5,6.3-5.9,13.2-9.6,19.5
			c-0.8,1.3-1.3,2.6-2.7,3.5c-0.9,0.5-1.8,0.8-2.9,0.6c-2.4-1.3-2.8-3.9-3.7-6.1c-0.4-1.3-0.8-2.7-1.4-4
			c-5.4-13.5-11.3-26.9-19.6-39c-4.8-7-10.2-13.5-16.3-19.2c-1.2,1.1-0.5,2.7-1.1,3.9c-0.2,0.9-0.5,1.8-0.6,2.8
			c-0.5,2.3-0.9,4.6-3.4,5.7c-0.6,0-1-0.2-1.3-0.6c-0.3-5.3,1.4-10.3,2.5-15.3c0.6-2.9,3.6-2.3,5.7-2.9c2.2-0.2,3.8,0.9,5.1,2.6
			c7,7.5,12.7,16.1,18.5,24.6c1.8,2.8,3.5,5.6,5.1,8.5c3.7,6.6,7,13.4,8.4,20.9c-0.1,0.3,0,0.6,0.1,0.9
			C1388.8,284.6,1388.9,286.5,1389.9,288.1z"/>
		<path fill="#131313" d="M1196,311c7.4,25.6,14.7,51.2,22.1,76.8c0.4,2.8,3.4,5,1.9,8.2c-0.9-0.5-1.7-1.1-1.9-2.2
			c-1.9-9.4-6.1-18.1-8.2-27.5c-2.3-10.2-5.7-20.3-9-30.3c-2.8-8.3-4.6-16.9-6.7-25.4c-4.9-19.6-10.1-39.1-13.6-58.9
			c-1-5.5-2.5-10.9-3.4-16.4c-0.2-1.2-0.8-3,0.7-3.6c1.7-0.7,2,1.3,2.7,2.3c1,1.3,1.8,2.7,3.1,4c-0.5-5.2-4-9.2-6.2-13.6
			c-5-10-8.5-20.3-10.4-31.2c-1-5.7-3.3-11.1-5.8-16.2c-1.5-3.1-1.4-5.5,1.2-7.5c3.8-3,5.4-8.1,10-10.2c-2.2,4.7-6.3,8-9.4,11.9
			c-1.1,1.4-1.3,2.2-0.6,3.9c2,5,3.8,10.1,5.7,15.2c1.5,1.8-0.3,4.1,1.1,5.9l0,0c1.2,1.5,1.1,3.5,1.9,5.1
			c1.4,13.3,9.6,23.8,14.8,35.5c4.7,10.4,9.7,20.6,14.7,30.9c3.7,7.6,7.6,15.1,11.4,22.7c1.9,0.8,1.5-0.9,1.8-1.8
			c1.3-3.5,2.6-7,3.5-10.7c2.1-2.6,2.5-6.1,4.3-8.8c3-4,4.4-9,7.4-13c2.4-2.1,2.5-5.1,3.1-7.8l0,0c1-0.6,1.7,0,2.4,0.5
			c0.8,0.8,1.5,1.5,2.3,2.3c0.6,0.7,1,1.5,0.9,2.4c-0.4,1.6-2.2,2.2-2.6,3.8c-5.2,9.5-10,19.3-14.2,29.3c-1.7,2.4-2.9,5-3.7,7.8
			c-0.9,2.7-1.1,5.8-3.7,7.8c-7.6-15-14.8-30.1-24.1-44c-1-0.9-1.9-1.9-2.2-3.3c-0.2-1.2-0.4-2.5-1.2-3.6c-0.2-0.4-0.4-0.7-0.6-1.1
			c-0.6-1.3-1.3-2.7-2-4c-0.6-1.2-1-2.4-1.3-3.7c-0.3-0.9-0.5-1.8-1.1-2.5c0.6,1.1,0.7,2.3,1.1,3.4c0.1,0.5,0.2,0.9,0.3,1.4
			c0.1,2.7,0.5,5.3,1.8,7.7c0.5,2,0.8,4,1.3,6c0.4,4.5,1.5,8.8,2.7,13.1c1.5,8.6,3.4,17.1,5.3,25.6c0.5,2.3,0.7,4.5,1.1,6.8
			C1195.3,305.9,1195.2,308.6,1196,311z"/>
		<path fill="#818181" d="M1399,430c1-4,4.9-6.2,6.2-10.1c0.3-0.1,0.6,0,0.8,0.3c1.1,3.9-2.3,7-2,10.8
			c-3.7,10.7-11.2,18.9-17.9,27.7c-3.8,5-7.7,10-11.5,15c-1,1.4-2,2.9-4,1.3c-7.5-5.9-14.5-12.5-20.8-19.7c-1.5-1.8-4-2.8-4.5-5.4
			c0.1-0.5,0.3-0.9,0.7-1.2c2.5,0.1,4.8,0.1,7.4-0.7c6-1.8,6.8-0.6,5,5.5c1.8-4.8,5.3-4.8,9.5-3.7c5.4,1.5,10.5,0,15.2-2.9
			c2.7-1.7,4.3-1.4,5.2,1.6c0,0.3-0.2,0.5-0.6,0.5c0.4,0.2,0.5,0.1,0.6-0.4c0.6-2,1.6-3.7,3.1-5c3.7-3.4,4.6-8.6,8.3-12.1
			C1400.4,430.9,1399.5,430.3,1399,430z"/>
		<path fill="#828283" d="M1274.9,332c-1.9,3-2,6.6-3,9.9c-0.3,2.7-2.3,4.7-2.6,7.5c-0.2,1.6-1.4,2.6-3.3,1.9
			c-0.9-0.8-1.8-1.6-2.7-2.4c-4.9-1.7-6.8-6-8.4-10.4c-1.8-4.9-3.9-9.9-3.6-15.3c0.1-1.8,0-4.1,2.1-5.3c0.6-0.4,1.7,2.1,2.1-0.4
			c0.2-1.1,0.8-2.2,2-2.7c1.7,0.2,2.5,1.9,3.9,2.4c1.7,1.2,2.8,3,4.4,4.3c2.2,2,5,3.2,7,5.3C1274.2,328.1,1276.5,329.3,1274.9,332z"
			/>
		<path fill="#828282" d="M1335.7,442.1c-1.6-1.9-3.2-3.8-4.8-5.6c-0.7-2.9-3.5-4.2-5-6.4l0.1,0.1c-0.9-2-2.7-3.3-4-5.1l0,0.1
			c-0.3-1.9-1.8-2.9-3.1-4l0.1,0.1c-0.6-1.4-0.7-3.1-2.1-4l0.1,0.1c-3.4-4.9-3.9-10.8-6.1-16.1c-4.1-15.4-6.3-31.1-9.2-46.7
			c-0.6-3.2,1.4-1,2.3-1.2c2,1.2,4.3,1.9,5.8,3.8c1.6,2.8-3,4.1-1.4,7.3c4.1,8.1,3,17.4,5,26c1.3,5.6,2.5,11,7.1,14.9
			c1.5,1.3,1.5,3,0.2,4.4c-1.3,1.6-2.6,1.1-3,0.4c1.6,1.4,2.5,4.6,4.8,6.8c0.5,0.8,0.8,1.7,1,2.6c0.5,1.5,1.4,2.8,2.2,4.4
			c0.1-1.7-0.8-3.2-0.6-4.8c0.1-0.8,0.3-1.4,0.8-2c1.9-0.6,2.8,0.6,3.7,1.8c0.3,0.7,0.5,1.4,0.6,2.1c0.1,2,0.6,3.9,0,5.8
			c-0.4,0.5,0.7,0.8,0.1,0.5c-0.1-0.1-0.1-0.2,0.1-0.4c0.8-1.2,1.5-2.9,3.4-2c1.6,0.9,1.1,2.5,0.6,4c-0.4,1.2-1.4,2.3-0.6,3.7
			c0.6,1.2,1.4,2.2,2.3,3.2c2.2,2.7,6.1,4.3,5.7,8.7C1338.9,445.7,1337.9,442.5,1335.7,442.1z"/>
		<path fill="#252525" d="M1253.9,317.9c-3.1,9.7,0.8,17.8,5.6,25.7c1.1,1.8,2.5,3.5,3.8,5.2c-0.9,0.5-1.3,1.3-1.3,2.2
			c-3.1-1.8-5.6-4-6.1-7.8c-1-1.2-0.8-3.2-2.4-4c-0.9-0.8-0.7-1.8-0.7-2.7c-0.9-1.7,0.5-3.8-1-5.4l0,0.1c-1.8-5.4-2-10.8,0.1-16.2
			c0-1.4,0.1-2.8,0.9-4c1-1.6,0.9-3.3,0.1-5c-0.2-0.3-0.2-0.5,0-0.8c-1.3-4.9,0.6-9.6,1-14.4c-0.1-0.3,0-0.6,0.3-0.7
			c1.2-1,1.9-0.3,2.6,0.7c0.5,1.2,0.5,2.5,0.3,3.7c-0.2,1.2-1,2.3-1,3.5c0,0.7-0.1,1.1,0,0.5c0,0,0,0,0.1-0.1
			c1.9-4.8,5.2-8.5,9.1-11.6c8.3-6.3,17.4-3.8,26.5-2.9c2.1,0.7,4.2,0.7,6.4,0.9c5.2,1.2,10.4,1.8,15.6,3.1c1.5,0.6,3.1,0.8,4.6,1.2
			c1.4,0.7,3.4,0.4,4,2.4c-1.7,1.7-3.6,0.9-5.5,0.6c-10.2-1.5-20.3-3.1-30.5-4.4c-6.6-0.8-13.3-1.1-19.1,3.3c-0.8,0.6-1.3,1.4-2,2.1
			c-1,1.4-2.6,2.3-2.9,4.1c0,1.3,0.8,2.6-0.1,3.9c-1.4,1.9-2.7,3.9-4.1,5.8C1257.1,310.8,1257.2,315,1253.9,317.9z"/>
		<path fill="#262626" d="M1398.9,341.8c0.1,0.7,0.1,1.5,0.2,2.2c-0.8,2.5-1.5,5.1-2.4,7.5c-1,2.7-2.3,5.1-4.2-0.8
			c-0.9,4.8,2.5,7.9,1.4,11.5c-2.9-1.3-1.7-4.3-2.7-6.5c-0.4-7.4-3.5-14.1-5-21.2c-2.4-11.1-2.3-22.5-5.1-33.5
			c-0.9-3.3-2.7-6.4-2.2-10c2.1-0.8,3.1,0.7,4.3,1.9c3.4,8,5,16.4,5.8,25c0.6,7.1,2.4,14,3.4,21c0.1,3.6,2,6.9,2.4,10.2
			C1395.8,346.7,1395.4,343.2,1398.9,341.8z"/>
		<path fill="#828282" d="M1350,186c-6,5-12.1,10-18.1,15c-2.5,2.1-2.6,3.8,0.2,5.9c3.8,2.8,7.4,5.9,11.1,8.9
			c-0.2,0.7-0.7,1.2-1.4,1.5c-1,0.1-1.9-0.2-2.8-0.6c-2.9-2.1-6.4-3.2-9.3-5.2c-4.3-2.5-9.1-3-13.7-4.1c-1.6-0.4-3.8,0.1-4.2-2.5
			c7.4-3.7,15.2-6.5,22.3-10.9c2.8-2.3,5.9-4.2,9-6c2.4-0.8,4-3.4,6.9-3.2c0.3,0.2,0.4,0.5,0.3,0.8
			C1350.2,185.9,1350.1,186,1350,186z"/>
		<path fill="#818181" d="M1221.1,393.9c5.3,8,8,17.3,11.9,26c1.7,3.9,4.3,7.5,5.1,11.8c0.5,2.5,1.9,0.7,3,0.3
			c-0.3,3.5-3.1,6-3.9,9.3c-2.3-3.5-2.6-7.6-4.1-11.4c-0.6-1.5-1.3-3-1.8-4c1,3.1,4,6.3,1.6,10.4c-5.1-12.7-8.2-26.1-11.9-39.3
			C1220.4,396,1220.3,394.9,1221.1,393.9z"/>
		<path fill="#807F80" d="M1267.9,210.7c0.1-0.1,0.1-0.3,0.2-0.4c7.1-7.2,7.1-7.3-1.3-13.9c-6-4.7-12-9.5-18-14.3
			c0.7-0.6,1.3-0.7,1.9,0.1c10.1,6,20.1,11.9,30.2,17.9c0.8,0.4,1.5,1.1,2.1,1.8c2,2.4,1.2,3.6-1.6,4.4c-1.1,0.3-3.4-0.7-3.2,1.9
			c-0.1,1.6-1.6,1.9-2.6,2.7c-2.8,1.4-5.5,3.2-8.7,3.8c-0.5-0.1-0.8-0.3-1.2-0.7C1265.5,212.2,1267.3,211.9,1267.9,210.7z"/>
		<path fill="#272827" d="M1274.8,209.9c1.1-0.6,2.2-1.3,3.3-1.9c3-2.8,6.9-2.3,10.5-3.1c1.1-0.2,2.3,0.2,3.2-0.8
			c4.1,3.9,9.3,2.6,14.2,2.9c2.3,0.1,4.2-0.6,5.8-2.1c5.2,1.3,10.4,2.6,15.6,3.9c1.4,0.4,3,0.5,3.6,2.2c-0.3,3.2-1.5,5-5,3
			c-0.4-3.9-3.7-1.7-5.6-2.7c-10.3-1.8-20.7-2.7-31.1-0.9c-3,0.6-6.8-1-8.6,3.1C1275.6,214.6,1275.4,214.5,1274.8,209.9z"/>
		<path fill="#7D7D7D" d="M1200,137c-0.4-0.3-0.9-0.5-1.2-0.9c-3.2-4.9-6.5-5.6-9.8-0.1c2.8-6.6,7.8-10.8,14-13.8
			c3.1-1.6,4.5-0.8,4.5,2.8c0,2.8-0.5,5.5-1,8.3c-0.6,2.9-1.9,2.7-3.5,0.8c-0.7-1-1.4-2-2-3c-0.4-0.3-1-0.9-1.2-0.6
			c-0.6,1.2-0.5,2.4,0.2,3.6l0,0C1200.7,135,1200.7,136,1200,137z"/>
		<path fill="#818181" d="M1302.1,343.7c3.2,2.6,4.5,6.8,7.9,9.3c-0.4,0.4-0.8,0.5-1.2,0.2c-3.8-2.4-7.7-4.9-11.5-7.3
			c-2.7-1.7-5.1-3.6-7.2-6l0,0.1c-1.8-3.6-1.5-3.9,3.6-4.1c2.5,0.9,4.7-0.3,7-1.1c3.7-1.2,7.2-4.3,11.4-1.6c-2.6,1-5.1,2.2-7.8,2.9
			c-2.8,0.7-3.8,2.3-3.2,5c-0.5,0.5-1.6,0.6-1,1.7C1300.6,343.4,1300.8,344.6,1302.1,343.7z"/>
		<path fill="#818181" d="M1335.7,442.1c2.4-0.3,3.8,2.5,6.3,1.9c-1.3-3.6-3-6.8-7-8c-1.3-0.6-2-1.6-2-3c0-3.8,1.8-4.4,4.7-2.5
			c2.4,1.6,4.4,3.6,5.9,6c0.9,1.4,1.7,2.5,3.5,2c0.8,0.1,1.3,0.5,1.6,1.1c1.4,2,3,4-0.6,5.7c-1.4,0.6-1,2.6-2.1,3.7c0,0.3,0,0.7,0,1
			c-1.3,0.6-2-0.5-3-1l0,0c-0.9-1.3-1.7-2.6-3.4-2.8C1338.3,444.8,1337,443.5,1335.7,442.1z"/>
		<path fill="#828282" d="M1232.8,436.3c0.5-2.9-0.7-5.5-1.8-8.1c-0.7-1.8-1.8-3.5-0.1-6.2c2.4,6.8,6.2,12.3,6.1,19.3
			c-0.1,0.9-0.2,1.7-0.3,2.5c-0.9,0.9-1.8,0.9-2.7,0C1233.5,441.4,1232.7,438.9,1232.8,436.3z"/>
		<path fill="#292A2A" d="M1274.9,332c-0.5-3.5-3.7-4.6-5.9-6.6c-1.3-1.1-3.3-1.6-3.9-3.5c-0.2-1.5-4.6-2.8-0.2-4.4
			c5.1,3.3,10.9,6,13.5,12.1c-0.1,0.2-0.3,0.4-0.4,0.6C1277,330.8,1275.9,331.4,1274.9,332z"/>
		<path fill="#848484" d="M1291.8,204.1c0.6,1,1,1.9-0.7,1.9c-4.5-0.1-8.6,1.5-13,2.1c-0.4-0.6-2.8,0.9-1.5-1.2
			c0.8-1.3,2.5-2,4.3-1.8c3.8,0.3,1.9-1.6,1.1-3c1-0.8,2.1-0.6,3.1-0.1C1287.3,202.7,1289.6,203.4,1291.8,204.1z"/>
		<path fill="#7A7A79" d="M1401.7,132.9c-0.8,0.3-2,1.7-2.3,0.1c-0.5-3-0.6-6.2-0.6-9.3c0-1.5,1.3-1,2.2-0.8c2.1,0.4,3.3,2,4.8,3.2
			c0.6,1.3-0.7,1.9-1.1,2.7C1403.9,130.3,1403.1,131.8,1401.7,132.9z"/>
		<path fill="#818181" d="M1411.9,133.1c-4.3-0.9-4.2,5-7.9,5c-0.7-1-0.7-2,0-3l0,0c1-1.1,0.1-2.7,1.1-3.8c1-1,0.6-3.4,3-3.2
			C1409.1,129.9,1411.4,130.8,1411.9,133.1z"/>
		<path fill="#1A1A1A" d="M1293.7,336.8c-2.1,0-5.2-1.2-3.6,3.1c-1.4-0.9-3.4-1.3-2.3-3.9c0.7-1.7-1.7-0.8-1.9-1.9
			c0.2-0.2,0.4-0.5,0.6-0.7c2.3-1.3,4.8-1.1,7.2-0.9c1.8,0.1,4.6-0.1,4.4,2.7C1298,337.8,1295.2,336.3,1293.7,336.8z"/>
		<path fill="#272727" d="M1203,134.1c0.4,0.2,1.1,0.7,1.3,0.6c3.5-2.8,2.3-6.9,2.7-10.4c0.3-3-2.3-1.8-3.9-2c3-2.2,4.8-1.9,5,2.2
			c0.1,3.3,0,6.5-0.9,9.7c-0.4,1.3,0.6,3.5-1.5,3.6C1203.5,137.7,1203.3,135.6,1203,134.1z"/>
		<path fill="#818181" d="M1310.8,401c3.3,4.9,3.6,11,6.1,16.1C1312.6,412.7,1311.7,406.8,1310.8,401z"/>
		<path fill="#C7C6C6" d="M1391.1,355.8c0.9,2.2,1.8,4.3,2.7,6.5c-0.6,3,1.9,5.7,1.1,8.8C1392.6,366.2,1390.7,361.3,1391.1,355.8z"
			/>
		<path fill="#A9A9A9" d="M1233.1,170.9c-4.8-2.4-9.3-5.2-12.1-10C1225.4,163.8,1229.8,166.7,1233.1,170.9z"/>
		<path fill="#5D5D5D" d="M1308.8,353.2c0.4-0.1,0.8-0.1,1.2-0.2c0.4,0.3,0.7,0.6,1.1,0.9c1.1,1.2,3.4,1.9,2.1,4.3
			c-1.8,1.1-2.8-0.5-4.1-1.2c-1.7-1.3-3.4-2.6-5.1-3.9C1305.6,352,1307.1,356.2,1308.8,353.2z"/>
		<path fill="#7F7E7F" d="M1404,430.9c-2.2-4.1,1.6-7.1,2-10.8C1408.3,424.3,1405.8,427.6,1404,430.9z"/>
		<path fill="#A4A3A3" d="M1366.9,173.9c-3.1,4-7.1,6.6-11.9,8.1C1358.6,178.7,1362.4,175.7,1366.9,173.9z"/>
		<path fill="#292929" d="M1264.2,363c-0.9-3.2,3.4-5.5,1.5-8.9c2.2-0.1,2.8,1.4,2.1,2.8C1266.7,359.1,1267,362,1264.2,363z"/>
		<path fill="#8D8C8C" d="M1399,388c-1.1-4.3-3.5-8.3-3-13C1398.5,379,1399.3,383.4,1399,388z"/>
		<path fill="#2F2F2F" d="M1405.9,131.9c-0.6,1-1.3,2-1.9,3c0.1-1.6-0.1-2.9-2.2-2.1c0.7-1.7,1.5-3.3,2.2-5
			C1407.9,127.6,1406.4,130,1405.9,131.9z"/>
		<path fill="#545454" d="M1250.8,182.2c-0.6,0-1.3-0.1-1.9-0.1c-2.9-1.7-5.9-3.3-8-6C1245,176.8,1248,179.4,1250.8,182.2z"/>
		<path fill="#292929" d="M1266,351.2c2.1,0,2.8-1.3,3-3.2c0.3-2.3,1.3-4.4,2.8-6.2c0.8,3.5-1.8,6-2.7,9.1
			C1268.9,352.2,1267.2,352.4,1266,351.2z"/>
		<path fill="#454545" d="M1343.1,188.1c-2.7,2.5-5.6,4.6-9,6C1336.2,190.8,1339.3,188.9,1343.1,188.1z"/>
		<path fill="#1A1A1A" d="M1290.1,339.9c3,1.3,4.9,3.8,7.2,6C1294.1,344.8,1291,343.6,1290.1,339.9z"/>
		<path fill="#272727" d="M1200,134c-1.4-1.9-2.7-3.8-0.9-6.6c1.5,0.8,1.8,2.1,1.9,3.6C1199.8,131.8,1200.1,133,1200,134z"/>
		<path fill="#525252" d="M1221.1,393.9c0,1.1-0.1,2.1-0.1,3.2c-0.3-0.4-0.6-0.7-0.9-1.1c0.3-2.9-2.6-5.2-1.9-8.2
			C1220.2,389.3,1220.5,391.7,1221.1,393.9z"/>
		<path fill="#7F7E7F" d="M1343,449c1,0.3,2,0.7,3,1c1.3,1.7,2.6,3.5,3.9,5.2C1346.9,453.9,1344.9,451.6,1343,449z"/>
		<path fill="#1A1A1A" d="M1285.9,334.1c-1,0-1.9-0.1-2.9-0.1c0,0,0,0,0,0c-1.7-1.3-3.3-2.6-5-3.8c0,0,0.1-0.3,0.1-0.3
			c0.8-0.7,1.8-0.8,2.8-0.5c1.9,1.3,4.6,1.7,5.3,4.5L1285.9,334.1z"/>
		<path fill="#595958" d="M1441,176.9c-0.3,0.1-0.5,0.1-0.8,0.2c-0.6-0.2-0.7-0.6-0.3-1.1c1.5-2.5,0.1-4.7-0.9-6.9
			C1443.1,170.8,1442,173.8,1441,176.9z"/>
		<path fill="#929191" d="M1261,372c0-3,0.1-6.1,2.9-8.1C1263.8,366.9,1262.4,369.5,1261,372z"/>
		<path fill="#818181" d="M1325.9,430.1c2.4,1.6,5,3,5,6.4C1329.2,434.3,1326.5,433,1325.9,430.1z"/>
		<path fill="#989898" d="M1350,186c0-0.4-0.1-0.8-0.1-1.2c1.4-1.5,2.9-2.8,5.1-2.9C1354,184.1,1352.5,185.7,1350,186z"/>
		<path fill="#272727" d="M1200,137c0-1,0-2-0.1-3c1.1,2.5,3.6,4.2,4,7C1202.5,139.9,1200.7,139,1200,137z"/>
		<path fill="#5E5E5E" d="M1405.9,131.9c0.1-1.7,0.5-3.6-2-4.1c0.6-0.6,1.3-1.2,1.9-1.8c1.2,0,1.8,0.8,2.1,1.9
			C1406.4,128.8,1407.7,131.2,1405.9,131.9z"/>
		<path fill="#818181" d="M1321.9,425c2,1.2,3.9,2.4,4,5.1C1324.2,428.7,1322.4,427.4,1321.9,425z"/>
		<path fill="#A5A4A4" d="M1388,156c-0.5,2.2-1.5,4-4.2,3.8C1384.9,158.2,1386.3,157,1388,156z"/>
		<path fill="#616161" d="M1257.8,380.8c0.4-1.8,0.9-3.5,2.3-4.8C1260.2,378,1260.6,380.2,1257.8,380.8z"/>
		<path fill="#2F2F2F" d="M1404,135c0,1,0,2,0,3c-0.7,1.1-1.5,2.1-3,2.1C1402,138.4,1403,136.7,1404,135z"/>
		<path fill="#535353" d="M1234.1,443.9c0.9,0,1.8,0,2.7,0c0.1,1.1,0.1,2.3-1.1,2.4C1234.1,446.5,1234.1,445.1,1234.1,443.9z"/>
		<path fill="#818181" d="M1318.9,421.1c2,0.6,3.5,1.6,3.1,4C1320.8,423.9,1319.2,422.9,1318.9,421.1z"/>
		<path fill="#807F7F" d="M1285.1,201.9c-1,0-2.1,0-3.1,0.1c-0.3-0.6-0.7-1.3-1-1.9C1282.6,200.2,1283.9,201,1285.1,201.9z"/>
		<path fill="#818181" d="M1316.8,417.1c2.1,0.6,2.3,2.2,2.1,4C1317.7,420,1317.1,418.6,1316.8,417.1z"/>
		<path fill="#7F7E7F" d="M1339.6,446.1c2.1-0.2,3.2,0.7,3.4,2.8C1341.9,448,1340.7,447.1,1339.6,446.1z"/>
		<path fill="#060707" d="M1322.8,272.1c-6.3-2-12.7-3.7-18.8-6.1c-12-4.7-21.8-1.2-30.6,7.3c-0.7,0.7-1.5,1.2-2.3,1.8
			c-1.9,1-2.4-0.1-2.6-1.7c-1.6-3.2-2.6-6.6-3.7-10c-1.7-5.7-1.8-5.7,3.6-8c0.6-0.3,1.2-0.6,1.8-0.9c3.4-1.7,7-1.9,10.7-2
			c7.1-0.1,14.3,0.6,21.4-0.4c2.4-0.3,4.7-1.3,7.2-0.8c3.4,5.3,7.7,9.8,12.3,14c1.4,2.2,4.8,2.9,4.6,6.3
			C1325.3,272.9,1324.1,272.6,1322.8,272.1z"/>
		<path fill="#7F7E7F" d="M1346,449c0-1.2-0.9-2.6,0.6-3.5c2.2-1.4,2.6-3.3,1.5-5.6c3.6-0.5,5,3.4,8,4.1c1.2,0.6,2.4,1.1,3.6,1.7
			c11,5.3,18.5,4,27.8-4c4.2-3.6,7.5-7.9,11.5-11.6c1.1-0.2,1.8-2.1,2.9-1.2c1.4,1.1-0.2,2.1-0.8,2.8c-4.5,5.7-7.1,12.9-13.1,17.4v0
			c-1-1.4-1.6-3.5-4.1-1.5c-5.1,4.1-11,4.7-17.2,3.5c-2.4-0.5-4.9-2.4-6.2,1.8c-0.2,0.8-3.3,3.5-6.5,1.1c3.3-0.7,4.3-2.7,4.3-5.5
			c-2.2-1.4-3.9,4.9-5.9,0c-1.8,1.8,1.1,2.7-0.2,4.1C1349.9,451.8,1348.7,449.1,1346,449z"/>
		<path fill="#818181" d="M1291.8,285.1c-2.1-0.1-4.4,0.2-6.4-0.3c-7.3-1.8-14-0.2-20.4,3.2c-0.4-3,3-3.3,3.9-5.4
			c5.2-5.2,11.6-6.1,18.5-5.2c9,1.1,17.4,4,25.7,7.5c0,0-0.1,0.5-0.1,0.5c0.3,0.9,1.3,0.5,1.9,0.9c0.4,0.2,0.8,0.4,1.2,0.7
			c0.6,0.5,1.4,1.1,0.8,1.9c-0.8,1-2,0.6-3.1,0.2c-5.3-0.7-10.7-1.2-15.8-3C1296.1,284.7,1293.7,286.2,1291.8,285.1z"/>
		<path fill="#7F7F7F" d="M1313,358c0.2-1.8-1.6-2.5-1.9-4.1c2.7,0.3,3.7,3.2,6,4.1c3.3,1.2,4.4,3.8,5.9,6.9
			c5.4,11.4,7.5,23.2,6.6,35.7c-0.4,5.7,0.4,11.2,1.9,16.7c-0.1,1.7,0,3.5-2.4,3.7c0-0.7,0-1.3,0-2c-1.1-0.5-0.6-3.4-3-2
			c0,0.7,0,1.3,0,2c-1.1,1.1-2.3,2.3-4,1c0-1,0-2,0-3c-0.3-2.7,0-5.2,1-7.8c1.1-2.8,1.9-5.7,1.6-8.7c-0.5-6.5,1.4-13.1-1-19.5
			c-2.7-7.3-4-15.2-10.1-20.8C1312.8,359.6,1312.5,358.8,1313,358z"/>
		<path fill="#818181" d="M1286.1,333.8c-1.7-1.4-4.2-1.6-5.4-3.6c0-0.7,0.4-1.2,0.7-1.7c1-1.4,0.1-3.5,1.5-4.7
			c0.4-0.1,0.9-0.1,1.2,0.2c10,3.4,20,6.8,30.9,7c-0.4,1.7-1.6,2.1-2.9,2.2c-4.6-0.2-8.6,1.7-12.6,3.7c-2.1,1-3.9,1.5-6,0.1
			c1.1-1,3-0.2,4.1-2.3C1293.7,334.3,1289.9,334,1286.1,333.8z"/>
		<path fill="#383838" d="M1262.1,301.2c0.7-1.7-3-2.2-1.1-4.2c4,1.2,8-2,12,0.1c12.7,3,25,7.1,37,12c1.6,0.8,3.3,1,4.8,1.9
			c2.4,1,4.8,2,7.2,3.1c0.1,1-0.2,1.5-1.3,1.1c-9.1-2-17.6-5.9-26.4-8.8c-7.2-2.3-14.8-3.5-21.8-6.7
			C1269.1,298.2,1265.2,298.5,1262.1,301.2z"/>
		<path fill="#808080" d="M1283,324.1c-1,1.5,2,3.8-1,4.9c-2.7,0.4-4.2-1.6-5.7-3.2c-3.4-3.4-7-6.5-11.4-8.4
			c-1.3-0.3-2.6-0.3-3.8,0.6c-2.1,0-3-1.2-3.2-3.2c-1.6-4,1.2-4.9,4.1-5.8c4.4,4,9.1,7.6,14,10.9
			C1277.9,322,1280.9,322.2,1283,324.1z"/>
		<path fill="#7F7E7F" d="M1329,421c0.7-1,1.3-2,2-3c3.2,0.7,2.4,4.3,4.2,6c3,3.7,5.9,7.3,8.9,11c1.1,1.3,3.3,1.7,3,4
			c-1.6,1-3,3.3-4-0.9c-0.5-2.2-3.3-4-5.1-5.9c-2.2-2.4-3.8-1.7-5,0.9c-2.1-0.3-1.9-1.2-0.9-2.6c1-1.4,2.2-2.8,1.5-5
			c-2.7,0.8-2.8,3.5-5,5.7C1328.7,427.1,1329.8,424.1,1329,421z"/>
		<path fill="#818181" d="M1335.2,424c-2.3-1.4-2.1-4.4-4.2-6c-2.5-7.1-2.5-14.4-1.9-21.7c1.1-12.6-4.1-23.6-8.2-34.9
			c-0.7-2-3.5-1.4-3.9-3.5c1.6,0.5,3.2,0.9,4.7,1.5c1.3,0.5,3.8,0.5,1.5,3c-0.9,1,0.2,2.2,0.7,3.2c4.3,9.1,7.2,18.6,6.4,28.8
			C1329.5,404.7,1330.5,414.6,1335.2,424z"/>
		<path fill="#404040" d="M1378.1,289.9c-4-5.4-10.2-6.3-16.1-7.8c-2.7-0.7-5.4-1.5-8-2.2c-0.6-0.7-0.6-1.4-0.1-2.1
			c3.3-1,6.2,0.5,9.3,1c0.7,0.2,1.4,0.6,2.1,0.7c0.7,0.1,1-0.5,0.3-0.2c-0.6,0.3,0.2-0.9-0.2-0.4c-1.8-1.7-3.9-3.1-3.8-6
			c0.2-1,0.7-1.8,1.6-2.3c1.7,0,2.7,1.2,3.7,2.2c3.6,4,6.8,8.4,11.3,11.6c1.1,0.8,1.6,2.1,1.7,3.5
			C1379.6,289,1379.7,290.2,1378.1,289.9z"/>
		<path fill="#818181" d="M1321.9,291.1c-1.3-0.4-2.8,0.1-3.9-1.1c-0.5-0.7,0.2-1.6-0.3-2.3c-0.1-0.4,0.1-0.7,0.5-0.9
			c8.6,1.6,16.7,5.6,25.9,4.6c-5.5,2.4-11.2,3.2-17,2.6C1325.9,292,1323.1,293,1321.9,291.1z"/>
		<path fill="#313131" d="M1354,278c0,0.7,0,1.3,0,2c-10.6-1.9-21.2-3.5-31.2-7.9c1.1-0.3,2.5,0.1,3.2-1.2c1.9-1.5,3.8-0.5,5.7,0
			c5.3,1.3,10.5,3.1,16,3.8C1350.1,275.2,1352.4,276,1354,278z"/>
		<path fill="#858484" d="M1268.9,282.6c-0.4,2.4-3,3.3-3.9,5.4c-3,3.8-7.1,6.7-8.1,11.8c-2.9-1.1-0.9-3.2-1.1-4.8
			c0.1-1.3,0.1-2.6,0.2-3.9c0.3-0.4,0.6-0.6,1.1-0.7c2.6-0.9,4.3-3.3,6.8-4.3C1265.6,284.9,1267.3,283.7,1268.9,282.6z"/>
		<path fill="#BDBCBC" d="M1262,309c-2.3,1.3-4.2,2.8-4.1,5.8c-1.9,2.2-1.2,5.3-2.7,8c-1.9-1.4-0.8-3.5-1.4-5
			c0.8-3.8,2.2-7.5,4.1-10.9C1257.3,311.5,1261.4,306.8,1262,309z"/>
		<path fill="#5B5B5B" d="M1257,291c-0.3,0-0.6,0-0.9,0.1c-0.4-0.8-1.2-0.9-1.9-1c3-4.6,6.8-8.5,10.8-12.2c0.8,0.9,0.5,1.8,0.2,2.7
			c-0.2,1.9-2.3,2.2-3,3.6C1261.2,287.1,1259.4,289.3,1257,291z"/>
		<path fill="#444444" d="M1321.9,291.1c2.4,0.4,4.8,0.8,7.2,1.1c0.1,1.8-1.5,1.1-2.1,1.7c-3.5-0.2-7-0.7-10.3-1.9
			C1318.4,291.4,1320.4,292.6,1321.9,291.1z"/>
		<path fill="#CCCBCB" d="M1257,291c0.7-3,3.5-4.5,5.1-6.8c0,1.2,0.7,1.8,1.9,1.8C1261.9,288,1260.9,291.6,1257,291z"/>
		<path fill="#C5C4C4" d="M1273,297.1c-4-1-8,2-12-0.1c1.1-1.6,2.3-2.9,4.1-3.9c-0.4,1-0.8,2.1-1.3,3.3
			C1266.9,296.4,1270.1,294.7,1273,297.1z"/>
		<path fill="#AEADAD" d="M1347,438.9c-1-1.3-2-2.6-3-3.9c4.4,2.5,8.2,5.8,12,9c-3.4,0-5-3.5-8-4.1
			C1347.7,439.5,1347.4,439.2,1347,438.9z"/>
		<path fill="#7C7B7B" d="M1325,315c2.4,0.6,4.6,1.5,6.5,3.9c-3.8,0.1-6.8-1.2-9.6-2.8C1322.6,314.7,1324.1,315.8,1325,315z"/>
		<path fill="#7B7B7B" d="M1302.1,343.7c-0.4,2.5-1.4,1.5-2.5,0.4c-1.2-1.2-2.5-2.7-1.2-4.3c1.1-1.4,1.6,1.1,2.7,1.1
			C1302,341.7,1302.1,342.7,1302.1,343.7z"/>
		<path fill="#4F4E4E" d="M1265.1,280.5c-0.1-0.9-0.1-1.8-0.2-2.7c0.7-1.8,3.6-2.3,3-4.8c0.3-0.5,0.7-0.5,1,0c0,1.4,0.9,1.8,2.1,2
			C1269.1,276.9,1267.1,278.7,1265.1,280.5z"/>
		<path fill="#868686" d="M1283,324.1c-2.6-0.9-5.7-1-7-4.1c3,0.8,5.6,2.3,8.2,4C1283.8,324,1283.4,324,1283,324.1z"/>
		<path fill="#646463" d="M1378.1,289.9c0.3-0.7,0.6-1.4,1-2.1c2.6,0.8,4,2.3,2.9,5.2c-1.1-0.7-2.1-1.3-3.2-2
			C1378.2,290.9,1377.9,290.6,1378.1,289.9z"/>
		<path fill="#818181" d="M1313.1,284.9c1.9,0.2,3.6,0.6,5.1,1.9c0,0-0.2,0.3-0.2,0.3c-1,0.7-2,0.6-3-0.1c-0.5-0.9-2.5-0.1-2-1.9
			L1313.1,284.9z"/>
		<path fill="#515151" d="M1325,315c-0.7,1.4-2,0.8-3.1,1.1c-0.4-0.3-0.8-0.6-1.3-0.9c0.4-0.4,0.9-0.7,1.3-1.1
			C1323,314.4,1324,314.7,1325,315z"/>
		<path fill="#464646" d="M1314.8,311c-1.9,0-3.5-0.5-4.8-1.9C1312.1,308.6,1313.5,309.5,1314.8,311z"/>
		<path fill="#818181" d="M1257,218.9c0.8-1.7,2.4-2.4,3.9-3.3c0.7,0.4,0.9,1.1,1,1.9c-1.9,4.9-6.7,7.1-10,10.7
			c-2.1,2.4-4,5.4-7.6,6c-0.4-0.2-0.7-0.6-0.8-1.1c0.5-2.5,2.8-3.6,4.2-5.5C1250.8,224.9,1253.6,221.6,1257,218.9z"/>
		<path fill="#BEBEBD" d="M1217.7,277.8c-1.4,3.7-1.4,7.8-3.7,11.2c-0.3,0.5-0.7,0.5-1,0c2.5-7.1,2.7-15,7.9-21
			C1221.4,271.7,1219.4,274.7,1217.7,277.8z"/>
		<path fill="#585757" d="M1229.2,256.2c-2.4,4.3-4.8,8.6-7.2,12.9c-0.7-0.7-0.6-1.5-0.1-2.3c2.2-4.1,3.3-8.8,7-12
			C1229.5,255.2,1229.6,255.7,1229.2,256.2z"/>
		<path fill="#818181" d="M1233,243c0.3-2.3,2.8-1.8,3.9-3.1c0.5-0.3,0.9-0.4,1.5-0.4c2.3,0.2,4.7-0.1,7,0.4c1,0.4,2,0.8,1.8,2.2
			c-2.4,2.1-5.4,0.8-8.1,1.6c-1.3,0.4-2.6,1.1-4,1.5C1233.4,245.4,1233.6,243.9,1233,243z"/>
		<path fill="#838383" d="M1257,218.9c-2.4,3.6-5.6,6.4-8.9,9.1c-0.3-0.2-0.4-0.5-0.3-0.7c0.1-0.3,0.1-0.4,0.2-0.4
			C1250.4,223.6,1253.1,220.5,1257,218.9z"/>
		<path fill="#9F9E9E" d="M1247.9,226.9c0,0.4,0.1,0.8,0.1,1.1c-1.3,1.7-2.7,3.3-4,5c-0.6,1-1,2.3-2.6,2.3c-0.2-0.1-0.4-0.3-0.6-0.4
			C1242.5,231.6,1244.8,228.9,1247.9,226.9z"/>
		<path fill="#464646" d="M1233,243c0.6,0.7,1.3,1.4,1.9,2c0.2,0.1,0.4,0.1,0.7,0.2c0.4,0.3,0.6,0.6,0.8,1.1
			c-0.1,1.6-0.9,2.5-2.5,2.8c-0.6-0.4-1.3-0.8-1.9-1.1C1231.6,246.2,1232.2,244.6,1233,243z"/>
		<path fill="#616161" d="M1221.9,266.8c0,0.8,0.1,1.5,0.1,2.3c-1.2,3-1.3,6.6-4.3,8.6c0.2-3.5,3.3-6.2,3.2-9.8
			C1221.3,267.6,1221.6,267.2,1221.9,266.8z"/>
		<path fill="#464646" d="M1229.2,256.2c-0.1-0.4-0.2-0.9-0.3-1.3c1-2.3,2-4.6,3-6.9C1232.6,251.2,1232.2,254.1,1229.2,256.2z"/>
		<path fill="#9F9E9E" d="M1238,240c-0.4,0-0.8-0.1-1.2-0.1c1-1.9,2.2-3.7,4-5c0.1,0.1,0.3,0.2,0.4,0.3c0.6,0.6,0.8,1.3,0.7,2.1
			C1241.6,239.5,1240.2,240.3,1238,240z"/>
		<path fill="#807F80" d="M1261,218c-0.1-0.8-0.1-1.6-0.2-2.4c0.3-0.2,0.5-0.5,0.8-0.7c1.5-0.1,2.6-2.1,4.3-0.9l0.1,0.1
			C1265.9,217.3,1264.1,218.5,1261,218z"/>
		<path fill="#818181" d="M1265.9,213.9c-1.4,0.3-2.9,0.6-4.3,0.9c2-1.5,3.8-3.4,6.3-4.2C1267.3,211.8,1266.6,212.9,1265.9,213.9z"
			/>
		<path fill="#939292" d="M1170.9,201.1c-1.2-1.5-2.2-3-1.9-5.1C1171.3,197.1,1171.3,199,1170.9,201.1z"/>
		<path fill="#939292" d="M1169,196c-1.6-1.7-1.2-3.9-1.1-5.9C1169.4,191.8,1169.2,193.9,1169,196z"/>
		<path fill="#ADACAC" d="M1213,289c0.3,0,0.7,0,1,0c0,1.1,0.4,2.4-1,2.7c-1,0.2-1-0.9-1.2-1.6C1212.2,289.7,1212.6,289.4,1213,289z
			"/>
		<path fill="#747474" d="M1373.9,253.1c-4.7-3.7-5.8-9.9-10.1-14c-3.2-3.1-5.8-6.7-8.7-10.1c2.4-1.4,2.7,1.1,3.9,2
			c5.3,4.2,8.4,10,11.9,15.6c0.9,1.5,2,3,3,4.5C1374.6,251.7,1374.6,252.4,1373.9,253.1z"/>
		<path fill="#BEBEBD" d="M1387.9,282.1c-3-7-6-13.9-9-20.9c-0.4-0.6-0.3-1.1,0.4-1.5C1383.5,266.6,1388.1,273.4,1387.9,282.1z"/>
		<path fill="#757575" d="M1359.1,231c-1.4-0.4-2.2-2-3.9-2c-1.3-1.2-2.4-2.6-4.2-3c-0.8,0.4-1.4,0-1.9-0.5
			c-0.7-1.2-2.1-2.2-0.9-3.8c1.5-0.7,2.1,0.7,3.1,1.2C1354.6,224.9,1357.5,227.3,1359.1,231z"/>
		<path fill="#7A7A7A" d="M1351.3,222.9c-1.2-0.3-2.3-0.5-3.5-0.8c-2.9-0.6-5.5-1.5-5.8-5.1c0.4-0.4,0.8-0.8,1.2-1.1
			C1346.2,217.9,1349.5,219.6,1351.3,222.9z"/>
		<path fill="#BAB9B9" d="M1432.1,201.1c-0.1,5.7-2.3,10.7-4.1,15.9C1428,211.3,1429.5,206,1432.1,201.1z"/>
		<path fill="#B2B1B1" d="M1379.3,259.7c-0.1,0.5-0.2,1-0.4,1.5c-1.7-2.7-3.3-5.4-5-8.1c0-0.7,0-1.4,0-2.1
			C1376,253.7,1378.4,256.3,1379.3,259.7z"/>
		<path fill="#B6B5B5" d="M1439.8,175.9c0.1,0.4,0.2,0.8,0.3,1.1c-1.4,3.3-2.8,6.6-4.2,9.9C1435.2,182.6,1438.1,179.5,1439.8,175.9z
			"/>
		<path fill="#858484" d="M1389.9,288.1c-1.8-1.3-2.2-3.1-1.9-5.1C1389.8,284.3,1390.2,286,1389.9,288.1z"/>
		<path fill="#848484" d="M1220,286c3.2-10.7,9-20.2,14-30c2.7-2.3,5.2-2.7,7,1c-8.3,9.8-14,21.3-21,32
			C1219.2,288.1,1219.3,287,1220,286z"/>
		<path fill="#7F7E7E" d="M1184,258c-1.5-1.7-1.2-3.7-1.1-5.7c-1.1-2.6-1.2-5.6-1.9-8.3c-0.2-0.2-0.2-0.4-0.1-0.7
			c-0.4-0.8-0.6-1.7,0.2-2.2c0.8-0.5,1.5,0.2,2,0.9c0.4,1.2,0.7,2.4,1.1,3.5c0.4,1.6,0.6,3.3,2,4.4l0-0.1c0.9,1.3,1.2,2.8,1.9,4.1
			c0,1.4,1.7,2.3,1.2,3.8c-2.2-0.7-2.5,0.4-2.1,2.3c2.4,12.2,4.6,24.4,7.1,36.6c0.5,2.4,1.3,4.8,1,7.3c-0.3,0.6-0.8,0.6-1.3,0.3
			c-2-11.1-5.6-21.8-6.8-33.1C1186.5,266.7,1184.9,262.4,1184,258z"/>
		<path fill="#202020" d="M1269,273c-0.3,0-0.7,0-1,0c-2.3-2.4-2.7-5.6-3.5-8.6c-0.9-3.8-2.6-6.1-7.2-5.6c-3.4,0.4-7,0.6-10.3-0.7
			c1.2-3.9,4.6-1.8,7-2.5c3.6-0.1,7.3-0.1,10.9-0.6c1.8-0.3,3.6-0.5,5.1,0.9c-5.8,2.7-5.9,2.8-3.7,10.3
			C1266.9,268.5,1268.1,270.7,1269,273z"/>
		<path fill="#3C3C3C" d="M1254.2,256.9c-2.3,0.8-5.1-0.9-7.2,1.2c-2-0.3-4-0.7-6-1c-2.2-1-4.4-2.4-7-1c-0.2-2.2,2.6-1.7,3.1-3.2
			c1.6-1.1,3.1-0.4,4.6,0.2c2.9,1,6.1,0.9,9.1,1.7C1252.2,255,1253.9,254.9,1254.2,256.9z"/>
		<path fill="#3B3B3B" d="M1252,314.9c-1.2,5.4-0.9,10.8-0.1,16.2C1249.1,325.7,1248.9,320.3,1252,314.9z"/>
		<path fill="#464645" d="M1253.9,290.8c-0.3,4.8-0.7,9.6-1,14.4C1251.9,300.3,1251.8,295.5,1253.9,290.8z"/>
		<path fill="#5B5A5A" d="M1220,286c0,1,0,2,0,3.1c-1,1.7-2,3.3-3,5C1216.5,290.8,1218.1,288.4,1220,286z"/>
		<path fill="#585857" d="M1193.8,304.2c0.4-0.1,0.9-0.2,1.3-0.3c0.7,2.3,1.4,4.6,1,7C1194.5,309,1194.4,306.5,1193.8,304.2z"/>
		<path fill="#464645" d="M1252.9,306c1.5,1.7,1.6,3.3-0.1,5C1252.9,309.3,1252.9,307.7,1252.9,306z"/>
		<path fill="#3B3B3B" d="M1251.9,331.1c1.9,1.5,1.1,3.5,1,5.4C1251.9,334.7,1251.8,332.9,1251.9,331.1z"/>
		<path fill="#292929" d="M1253.5,339.2c2,0.6,2.3,2.3,2.4,4C1254.7,342.1,1253.7,340.9,1253.5,339.2z"/>
		<path fill="#FCFCFC" d="M1382,293c0.2-2.4-1.8-3.5-2.9-5.2c-5.4-5.6-10.7-11.2-16.1-16.8c-3.5-1.2-5.4-4.2-7.7-6.7
			c-3.2-3.5-6.5-7-9.9-10.3c-3.2-3.1-3.9-6.3-1.4-10c1-1.8,2.2-3.6,2.1-5.9c1.9-3,3.3-0.4,4.7,0.5c3.9,2.8,5.8,7.2,8.7,10.9
			c9.5,12.2,18.5,24.8,25.1,38.9c0.5,2,1.6,3.7,2.4,5.5c1,2,2,4,2.9,6c2.2,3.2,0.9-1.8,2.1-0.9c3-2.8,4-6.9,5.7-10.3
			c4.6-9.9,10-19.3,15.1-28.9c1.2-0.7,1.1-3.3,3-2.7c1.6,0.5,1.4,2.4,1.5,3.9c0,1-0.3,2-0.4,3c-2.3,5-2,10.6-3.5,15.8
			c-0.4,1.4-0.3,3-1.2,4.2l0,0c-0.9,7.1-2.8,14-4.1,21c-1.7,11.6-6.1,22.6-9.1,33.9c-0.2,0.4-0.2,1-0.5,1.4c-1.2,1.8-0.7,5.3-3.8,5
			c-2.7-0.3-2.6-3.4-3.5-5.5c-1.8-8.3-3.4-16.6-4.2-25.1C1386.3,307.3,1384.1,300.2,1382,293z"/>
		<path fill="#030303" d="M1350,225c0.3,0.3,0.6,0.7,1,1c-6,1.5-5.9,6.3-6.1,11c-0.1,2.5-2.3,4.4-1.9,7c0.5,3.1,0.9,6.1-1.5,8.7
			c-2.9-0.2-5.1-2-6.5-4.1c-4.6-6.9-11.1-11.8-17.3-17c-5.1-1.9-10.1-0.2-15.1,0.3c-6.6,0.7-13.3-0.2-19.9,1.3
			c-1.3,0.3-3.5,0.1-3.5-1.8c0-1.6,1.9-2.4,3.3-2.4c6.5-0.3,12.9-1.5,19.4-1.4c2.4,0,5.3,0.3,6.2-2.9c0.8-3-1.2-4.6-3.2-6.2
			c-1.5-1.1-2.9-2.5-4.8-2.6c-10.6-0.8-21.3-1.2-31.4,3.3c-2.6,1.2-4.9,2.9-6.1,5.6c-1,2.1-1,4.2,0.5,6.1c1.4,1.8,3.4,1.8,5.5,1.3
			c1.9-0.5,3.7-1.4,5.7-1.7c1.4-0.2,2.9,0.2,3.4,1.5c0.7,1.9-1.1,2-2.3,2.5c-4.5,1.8-8.9,3.7-13.3,5.8c-0.4,0.2-0.9,0.4-1.4,0.5
			c-3.2,0.4-3.9-1.6-4.1-4.1c-0.2-1.9,0.2-3.9-0.2-5.8c-0.4-2-1.4-1.3-2.2-0.1c-0.9,2-2.5,3.3-4.4,4.3c-2.6,1.2-3.8,3.6-5,6
			c-2.3-0.3-4.9,1.2-6.9-0.9c1.5-0.4,2.6-1.2,3.1-2.8c0.6-1.4,1.4-2.6,3-2.9c5.6-5.4,11.3-10.9,16.9-16.3c2-1,3.9-1.9,5-3.9
			c2.9-1.4,5.9-2.8,8.8-4.1c0.6,0.1,1.8,0,1.9,0.3c1.1,2.9,1,2.9,4.7,2.1c0.6-0.8,1.5-1.2,2.5-1.3c2.4-0.5,5-0.3,7.4-0.9
			c1.9,0.1,3.7-0.7,5.5-1c7-0.7,13.8,1.1,20.7,1.1c2.5,2,6.1,0.7,8.5,2.9c3,2.7,3.7-0.5,5-2c3.3,1.3,6.5,2.6,9,5.2
			C1342.9,219.7,1346.7,222,1350,225z"/>
		<path fill="#818181" d="M1384.1,288.9c-7.6-14.1-16.8-27.3-26.5-40.1c-2.3-3-4.5-6-7-8.9c-1.1-1.2-2.1-3.3-4.4-1.9
			c-0.4-0.9,0-1.6,0.6-2.2c1.7-2.1-0.2-4.8,1.2-6.9c7,5.7,12.6,12.8,17.6,20.3c8.5,12.6,15.3,26.2,20.4,40.7
			C1384.8,290.6,1384.5,289.6,1384.1,288.9z"/>
		<path fill="#333433" d="M1340.7,252.2c2.9-2.1,1.6-5.4,2.3-8.2c0.3,0,0.7,0,1,0c-1.5,5.3,1.3,8.5,5,11.9c5,4.6,9.3,10.1,13.9,15.1
			c-0.1,0.8-0.3,1.6-1.1,2c-0.7,0.2-1.4,0.2-1.9-0.3c-6.8-5.9-13-12.5-19.1-19.2C1340.6,253.2,1340.6,252.7,1340.7,252.2z"/>
		<path fill="#878787" d="M1415.9,263.9c0-1.9,0-3.8,0-5.9c-1.1,0.7-2.1,1.3-3.1,1.9c2-4,4-8,6.1-12c3.2,1.1,1.6,3.7,1.3,5.4
			c-0.3,1.9-0.5,3.9-1.1,5.8l-0.1-0.1c-1.5,2.4-1.1,5.3-2.1,7.8c-0.2,0.2-0.5,0.4-0.8,0.5C1415.2,266.2,1415.4,265,1415.9,263.9z"/>
		<path fill="#676767" d="M1419.1,259.1c-1.2-3.7,2.8-7.5-0.2-11.2c0.4-2.7,1-5.4,3.5-7.4C1422.6,246.9,1420.9,253,1419.1,259.1z"/>
		<path fill="#7C7C7C" d="M1391.2,339.8c3.4,5.6,3.4,5.6,7.7-0.9c0,1,0,1.9,0,2.9c-1.3,3.2-2.6,6.3-4.2,10.2
			C1393.1,347.6,1391.4,344,1391.2,339.8z"/>
		<path fill="#989798" d="M1408,305.1c-0.5-7.3,2-14.1,4.1-21C1412.7,291.4,1410.6,298.3,1408,305.1z"/>
		<path fill="#989798" d="M1415.9,263.9c0.1,1.1,0.2,2.3,0.2,3.4c0,1.2,0,2.5,0,3.7c-1,4.3-1.9,8.6-3.2,12.9l-0.4,0.2l-0.4,0
			C1411.7,277,1414.1,270.5,1415.9,263.9z"/>
		<path fill="#777776" d="M1412.9,283.9c0.1-4.5,1.5-8.7,3.2-12.9C1416,275.5,1415.7,280,1412.9,283.9z"/>
		<path fill="#777776" d="M1416.9,266.8c0.1-2.8-0.5-5.7,2.1-7.8C1419.1,261.8,1418.5,264.4,1416.9,266.8z"/>
		<path fill="#BCBBBB" d="M1384.1,288.9c0.6,0.4,1.2,0.7,1.9,1.1c0.4,1.3,0.7,2.6,1.1,4C1385.5,292.6,1384.2,291.1,1384.1,288.9z"/>
		<path fill="#7E7E7E" d="M1348,229.1c-0.4,2.3,1.1,4.9-1.2,6.9C1347.5,233.7,1346.3,231.1,1348,229.1z"/>
		<path fill="#575757" d="M1392.1,299.1c-0.1,1.3,0,2.9-1.7,3.1c-0.6,0.1-0.8-1.3-0.5-2.1C1390.7,299.7,1391.4,299.4,1392.1,299.1z"
			/>
		<path fill="#FDFDFD" d="M1340.7,252.2c7.1,7,14.1,13.9,21.2,20.9c0.9,2.7,3.4,4,5.1,6c-0.3,2.3-1.8,1.4-3,1.1
			c-3.3-0.7-6.7-1.4-10-2.1c-2.4,0.5-3.8-1.8-6-2c-5.7-1.8-9.9-5.7-14-9.7c-4.2-4.1-8.4-8.4-12.6-12.5c-2.2-2.4-4.8-4.6-6.7-7.3
			c-1-1.5-2.4-2.3-4.3-1.7c-0.4,0.1-0.9,0.3-1.4,0.4c-4.1,0.7-7.8,2.8-11.7,4c-0.5,0.2-1.1,0.2-1.6,0.3c-9.3,0.3-18.5,0.9-27.4,3.9
			c-9,3-18.2,2-27.4,0.8c-1.3-0.4-2.6-0.8-3.9-1.2c-0.4-0.5-0.8-1.1-1.2-1.6c-2-2.2-0.8-3.3,1.4-3.5c3.4-0.3,6.7-1.4,10.1-1
			c0.9-0.1,1.8,0.3,2.7-0.3c-1.2,0-2.5,0-3.7,0.1c-1.3,0.1-2.6,0-3.9,0c-2.5-0.1-5.2,0.3-7.4-1.5c0,0-0.2,0.1-0.2,0.1
			c0.5-1.4,1.5-2.1,2.9-2.2c6.2-0.4,12.4-0.9,18.6-1.8c1.5-0.9,3.2-0.3,4.7-0.9l-0.1,0c10.3-6.3,21.7-8.6,33.6-8.7
			c6.5,0,12.8-0.7,19.2-1.7c2-0.3,3.6,0.1,5,1.5c6.1,4.6,12.2,9.3,16.5,15.9C1336.6,249.2,1338.9,250.5,1340.7,252.2z"/>
		<path fill="#8C8C8C" d="M1243.1,245.1c1.3,0,2.6,0,3.8,0c0.9,0.7,4.5,0.5,1,2.8c-3.6-0.2-7.1,1.2-10.8,0.7
			c-2.6-0.4-1.2,1.5-1.2,2.6c-1.5,0.1-1.8-1-2.1-2.1c0.7-1,1.4-1.9,2-2.9C1238.1,244.6,1240.8,246.3,1243.1,245.1z"/>
		<path fill="#7D7C7C" d="M1184,258c1.8,4.2,3.4,8.4,2.9,13.1C1185.2,266.9,1184,262.6,1184,258z"/>
		<path fill="#7D7C7C" d="M1183,242c-1.4-0.8-2.1-0.2-2.1,1.3c-1.2-2-1.4-4.2-1.6-7.2C1181.1,238.2,1182.8,239.6,1183,242z"/>
		<path fill="#7D7C7C" d="M1181,244c1.3,2.6,1.9,5.4,1.9,8.3C1180.9,249.8,1180.8,246.9,1181,244z"/>
		<path fill="#7D7C7C" d="M1188,254c-1.3-1.1-1.9-2.4-1.9-4.1C1187.7,250.8,1188,252.3,1188,254z"/>
		<path fill="#7D7C7C" d="M1186.1,250c-2.2-0.8-2.2-2.5-2-4.4C1184.8,247,1185.5,248.5,1186.1,250z"/>
		<path fill="#7F7E7F" d="M1388,449c-0.2,1.2,0.3,2.9-1.8,2.7c-0.3,0-0.9-0.6-0.9-0.9C1385.1,448.7,1386.8,449.2,1388,449L1388,449z
			"/>
		<path fill="#4B4B4B" d="M1261.1,318c0.5-3.5,2.4-1.5,3.9-1c0.3,0.4,0.2,0.8-0.2,1.1c-2.9,1.5,1.3,2.5,0.3,3.8
			C1263.2,321.1,1262.3,319.4,1261.1,318z"/>
		<path fill="#818181" d="M1313,358c7.3,4.4,7.8,13,11.6,19.5c2,3.5,3.5,9.8,2.5,12.8c-2.5,7.1,1.4,15-3.7,21.3
			c-1.3,1.7,1.4,4.2-1.3,5.5c-4.2-1.1-3.7-6.1-6.8-8.2c-0.6-0.4-0.7-2.6,0.4-3.1c1.8-0.8,2.1,1,2.4,2.2c0.1,0.6,0.1,1.4,1.3,1.5
			c1.1-1.1,2.4-2.1,0.2-3.7c-4.3-3.2-5.7-7.8-6.9-12.8c-1.7-6.8-2.1-13.6-2.8-20.4c-0.3-2.5-2-4.9-2.7-7.5c-0.8-3.2-1.5-5.2,2.1-6.6
			c0.1,0-0.2-0.9-0.2-1.4C1310.3,357.3,1311.7,357.7,1313,358z"/>
		<path fill="#7F7E7F" d="M1335,436c2.1-2,2.9-0.3,4.1,1.2c1.7,1.9,3.1,4,3.8,6.5c0,0.1-0.1,0.4-0.1,0.5c-0.3,0-0.6,0-0.8-0.1
			C1339.7,441.3,1337.3,438.7,1335,436z"/>
		<path fill="#818181" d="M1322,420c1.3-0.3,2.7-0.7,4-1c0.4,2.2,1.6,4.3,0.8,6.9C1323.7,425.1,1323.8,421.8,1322,420z"/>
		<path fill="#818181" d="M1326,417c0.1-1.4-0.4-3,0.8-4.7c1.9,1.9,1.2,4.6,2.2,6.7C1328,418.3,1327,417.7,1326,417z"/>
		<path fill="#464645" d="M1255.8,295c0.4,1.6-0.5,3.5,1.1,4.8c0,1.2,0.6,2.6-1,3.9C1254.5,300.7,1254.4,297.9,1255.8,295z"/>
		<path fill="#808080" d="M1315,287c1,0,2,0,3,0.1c2.5,1,2,2,0,3c-1.5-0.1-2.9-0.1-4.2-1c0.7-0.1,1.5-0.2,2.2-0.3
			C1315.7,288.2,1315.3,287.6,1315,287z"/>
		<path fill="#808080" d="M1291.8,285.1c2.1,0.2,4.4-0.9,6.2,1C1295.9,286.1,1293.8,286.2,1291.8,285.1z"/>
		<path fill="#121313" d="M1350,225c-4-2.2-8.1-4.3-10.1-8.8c0.7,0.3,1.3,0.5,2,0.8c1.5,2.2,3.8,3.4,5.8,5.1
			C1348.4,223.2,1349.9,223.6,1350,225z"/>
		<path fill="#7A7A7A" d="M1317.7,211.2c-7.1-0.3-14.3-0.7-21.4-1c-2.7-0.3-5.8,2.2-8.2-1c11.3-1.6,22.6-1.4,33.8,1.1
			C1321.1,213,1319.2,211.4,1317.7,211.2z"/>
		<path fill="#6B6B6B" d="M1288.1,209.1c2.5,1.8,5.5,0.3,8.2,1c-1.6,1-3.5,0.4-5.3,0.8c-2.6,1.4-5.5-0.2-8.1,0.9
			c-0.5,0.1-1,0.3-1.4,0.4c-0.9-0.5-3.6-0.9-0.5-2C1283.1,209.5,1285.7,209.5,1288.1,209.1z"/>
		<path fill="#6B6B6A" d="M1317.7,211.2c1.4-0.4,3,0.3,4.2-1c1.5,0.4,3.2,0.5,4.6,1.2c1.6,0.8,0.5,1.4-0.5,1.7
			C1323.2,212.4,1319.9,214.1,1317.7,211.2z"/>
		<path fill="#868686" d="M1264.8,318.1c0.1-0.4,0.1-0.7,0.2-1.1c5.3,0,8.3,4.3,11.6,7.3c1.7,1.6,3.6,3.1,5.4,4.7
			c-0.4,0.4-0.9,0.8-1.3,1.2c-0.9-0.1-1.7-0.2-2.6-0.3C1274.5,325,1269.1,322.2,1264.8,318.1z"/>
		<path fill="#818181" d="M1241,254c11.9,0.7,23.4-1,34.8-4.2c6.8-1.9,14.1-1.7,21.2-1.8c0.3,1.7-1,2-2.1,2
			c-4.8-0.1-9.5,1.1-13.1,0.6c6.4-0.8,14.1,0.8,21.4-2.2c1.6-0.7,3.6-0.5,5.4-0.3c0.5,0.1,1,0.4,1.4,0.7c0.7,1.8-0.6,2.2-1.9,2.8
			c-1.7,0.7-3.5,0.7-5.1,1.6c-6.3,1.8-12.7,0.6-19,0.7c-4.8,0-9.5,0.1-14,2.1c-5.3,0.7-10.5,1.3-15.8,1
			C1249.9,255.1,1245.1,256.1,1241,254z"/>
		<path fill="#808080" d="M1322,253c8.6,7.7,16.3,16.5,26,23c-7.5-0.7-14.6-3.5-22-5.1c-1.8-1.5-4.2-2.4-5.1-4.9
			c0.1-0.8,1.3-1.8,1-1.9c-4-1.5-2.9-6.1-5.3-8.5C1317.6,253,1319.1,251.4,1322,253z"/>
		<path fill="#838383" d="M1317,256c0.8,1.2,2.1,1.6,3.4,2c0.8,0.3,1.5,0.7,1.4,1.7c-0.1,3.1-0.1,3.1,3.5,3.7
			c-0.7,2.2-3.1,1.5-4.3,2.6c-4.6-3.8-9.4-7.5-11.1-13.7c1.5-3.5,2.8-3.9,4.5-1.2c0.8,1.4,1.7,2.2,3,2.9
			C1317.5,254.7,1317.5,255.4,1317,256z"/>
		<path fill="#808080" d="M1317,254c-1,0.5-2,1-3.2,1.6c-1-1.6,1.5-4.5-1.5-5.2c-1.4-0.3-1.9,0.9-2.4,2c-2.4-1-4.4,1.5-6.8,0.7
			c1.8-2.3,5.6-1.1,7-4.1c0.6-1.7-2.9-3.4-0.1-5.2l-0.1,0.1c1.7-0.8,3.3-0.5,4.4,1c1.3,1.9,2.6,3.7,4.2,5.4
			C1320.3,252.1,1318.3,253.1,1317,254z"/>
		<path fill="#808080" d="M1313,285.1c0.7,0.6,1.4,1.3,2,1.9c-0.8,0-1.6,0-2.4-0.1c-0.8-0.1-1.9-0.4-1.7-1.3
			C1311,284.7,1312.2,285.1,1313,285.1z"/>
		<path fill="#4D4D4C" d="M1364,280.1c1-0.5,2.6,0.9,3-1.1c0.8,0.4,2.1,1.2,1.2,2C1366.8,282.1,1365.3,281.1,1364,280.1z"/>
		<path fill="#838383" d="M1244.1,234.2c-0.6,1.3-1.7,2.2-3,2.9c0-0.7,0-1.4,0.1-2c0.9-0.7,1.9-1.5,2.8-2.2
			C1244,233.4,1244.1,233.8,1244.1,234.2z"/>
		<path fill="#222222" d="M1261.2,240.2c-0.7,1.4-2.5,0.3-3.4,1.4c-3.5,1.6-7.1,1.1-10.7,0.3c-0.7-0.3-1.4-0.6-2.1-0.9
			c-1-3.9,1.6-5.3,4.3-6.8c1.4,1.2-2,3.8,1.1,4.4c1.7,0.3,4,0.5,4.7-1.7c0.8-2.5,1.4-5.3-2.1-6.7c0-2.1,1.4-3,3.2-2.7
			c1.8,0.3,1.7,2.1,1.7,3.6c0,2,0.2,3.9,0,5.9C1257.9,239.3,1259.1,240.1,1261.2,240.2z"/>
		<path fill="#CBCACA" d="M1247.1,241.9c3.6-0.1,7.2,0.7,10.7-0.3c-0.8,2.1-2.7,1.5-4.2,1.5c-5.2,0-10.5-0.2-15.7-0.3
			C1240.8,241.2,1244.1,242.8,1247.1,241.9z"/>
		<path fill="#CBCACA" d="M1243.1,245.1c-2.2,1.7-4.9,0.4-7.2,1.1c-0.2-0.4-0.5-0.8-0.7-1.2C1237.8,245,1240.4,245,1243.1,245.1z"/>
		<path fill="#1A1A1A" d="M1318.9,231.3c-1.5-0.3-3-1-4.3-0.8c-17.6,2.6-36.1,0.1-52.5,9.6c-0.3,0.2-0.6,0.1-1,0.1
			c4.3-4.5,10.5-5,15.5-7.7c-1.2-0.7-2.2-1-6.2,0.7c-3.8,1.6-7.1,1.9-9.2-2c-2.2-3.9-0.7-8.4,3.4-11.2c4.2-2.8,8.5-4.4,13.9-5.1
			c6.7-0.8,13.2-0.6,19.8-1c5.1-0.3,8.4,3.4,11.2,6.6c2.9,3.3-0.2,8.5-4.7,8.3c-6.9-0.3-13.5,1.4-20.4,1.1c-1.7-0.1-3.3,0-5.4,2.5
			c8.3-1.9,15.8-0.9,23.2-2.1c4.4-0.7,9,0,13.4-1.3C1317.1,228.6,1318.5,229.5,1318.9,231.3z"/>
		<path fill="#7F7F7F" d="M1253.1,230.2c1.9-1.4,3.6-2.4,3.8,1.3c0.1,1.5,0,3,0.2,4.5c0.3,2.5-0.5,3.8-3.1,3.9c-2.5,0-4.9,0-7.6,0
			c-0.1-2.7,2.9-3.4,2.9-5.6C1250.9,233.1,1252.6,232.3,1253.1,230.2z"/>
		<path fill="#272827" d="M1282.9,211.9c2.6-1.5,5.4-0.8,8.1-0.9C1288.5,213,1285.6,211.7,1282.9,211.9z"/>
		<path fill="#7E7E7E" d="M1350.1,234.8c2.8,2.7,5.3,5.1,7.8,7.7c0.8,0.8,1.7,2,0.4,2.9c-1,0.7-1.8-0.4-2.2-1.3
			C1354.6,240.8,1349.8,239.6,1350.1,234.8z"/>
		<path fill="#808080" d="M1309,249c-9.7,2.9-19.7,1.9-29.7,1.6c5.9-0.9,12-0.7,17.7-2.7c0.2-0.2,0.4-0.2,0.7,0
			c2.1-0.5,4.1-0.9,6.2-1.5C1306.1,245.7,1308.5,245.7,1309,249z"/>
		<path fill="#818081" d="M1309,249c-3.4-4.1-7.6,0.1-11.3-1.1c4-1.7,7.7-4,12.2-4.1c-0.8,1.6,0,2.6,1.1,3.7
			c2.6,2.5-0.8,0.9-1.1,1.5C1309.7,249,1309.3,249,1309,249z"/>
		<path fill="#818081" d="M1317,254c0.5-1.4,2.9-2.6-0.4-4.1c-2.6-1.3-2.3-6.4-6.8-6c1.9-1.8,3.6-1,5,0.6c2.4,2.8,4.8,5.7,7.2,8.5
			c-2.6-0.5-3.6,1.5-5,3C1317,255.3,1317,254.7,1317,254z"/>
		<path fill="#CBCACA" d="M1247.9,247.9c1.4-1.6-0.2-2-1-2.8c0.3-0.1,0.7-0.2,1-0.1c1.6,0.1,4.2-0.5,4.2,1.3
			C1252.2,248.8,1249.5,247.8,1247.9,247.9z"/>
	</g>
</g>
</svg>
